<?xml version="1.0" encoding="UTF-8" standalone="no"?>
<svg
   width="321.97"
   height="361.23"
   version="1.1"
   viewBox="0 0 85.189 95.575"
   xml:space="preserve"
   id="svg11141"
   sodipodi:docname="soroban.svg"
   inkscape:version="1.2.1 (9c6d41e410, 2022-07-14)"
   xmlns:inkscape="http://www.inkscape.org/namespaces/inkscape"
   xmlns:sodipodi="http://sodipodi.sourceforge.net/DTD/sodipodi-0.dtd"
   xmlns:xlink="http://www.w3.org/1999/xlink"
   xmlns="http://www.w3.org/2000/svg"
   xmlns:svg="http://www.w3.org/2000/svg"><defs
     id="defs11145"><linearGradient
       inkscape:collect="always"
       id="linearGradient7897"><stop
         style="stop-color:#4b64d2;stop-opacity:1;"
         offset="0"
         id="stop7893" /><stop
         style="stop-color:#5451a6;stop-opacity:1;"
         offset="1"
         id="stop7895" /></linearGradient><linearGradient
       inkscape:collect="always"
       xlink:href="#linearGradient7897"
       id="linearGradient13146"
       x1="217.68396"
       y1="115.11504"
       x2="284.3652"
       y2="115.11504"
       gradientUnits="userSpaceOnUse" /></defs><sodipodi:namedview
     id="namedview11143"
     pagecolor="#ffffff"
     bordercolor="#000000"
     borderopacity="0.25"
     inkscape:showpageshadow="2"
     inkscape:pageopacity="0.0"
     inkscape:pagecheckerboard="0"
     inkscape:deskcolor="#d1d1d1"
     showgrid="false"
     inkscape:zoom="2.9150402"
     inkscape:cx="102.22844"
     inkscape:cy="180.44348"
     inkscape:window-width="3840"
     inkscape:window-height="2054"
     inkscape:window-x="3061"
     inkscape:window-y="-11"
     inkscape:window-maximized="1"
     inkscape:current-layer="svg11141" /><g
     transform="translate(-208.43 -67.328)"
     id="g11139"
     style="fill-opacity:1.0;fill:url(#linearGradient13146)"><path
       d="m242.66 77.712c-0.70187 0.0092-1.3963 0.04598-2.0771 0.11164-4.2065 0.4057-7.4589 1.4372-11.181 3.5462-1.8228 1.0327-1.9404 1.1378-1.6147 1.4436 0.1932 0.18141 2.5416 1.9132 5.2183 3.8487 5.9229 4.2827 20.982 15.208 26.509 19.231 5.8797 4.2804 6.714 4.7281 10.044 5.3911 1.7888 0.3561 5.684 0.23577 7.4556-0.23016 3.1066-0.81705 6.108-2.864 6.9649-4.7504 0.5234-1.1522 0.51331-3.2372-0.0211-4.3394-0.66513-1.372-1.3432-1.9591-6.9654-6.0346-2.9498-2.1383-8.5318-6.1888-12.405-9.0007-3.8728-2.8119-7.5339-5.4152-8.1359-5.785-3.5956-2.2091-8.8788-3.4966-13.792-3.4321zm-17.122 7.5786-1.6293 1.6293c-2.8137 2.8137-4.1228 5.6189-4.3082 9.2321-0.13483 2.6279 0.38519 4.7336 1.7401 7.0483 1.5304 2.6144 3.1806 4.0437 12.182 10.549 4.5562 3.2928 8.9364 6.4678 9.7337 7.0555 0.79733 0.58773 4.3853 3.1955 7.9733 5.7952 12.642 9.1597 16.3 11.814 20.6 14.951l4.3422 3.1676 1.2159-1.1916c0.66855-0.65537 1.6284-1.7648 2.1333-2.4658 1.8058-2.5072 2.569-4.8285 2.5637-7.7966-4e-3 -2.2389-0.43528-3.974-1.497-6.0237-1.4825-2.8619-3.1208-4.2876-13.825-12.031-10.917-7.8976-26.452-19.166-35.161-25.506zm4.0894 33.356c-2.9577-0.0543-5.8774 0.64752-8.3689 2.073-2.4192 1.3842-3.5668 3.1004-3.5745 5.3454-5e-3 1.5821 0.47845 2.7348 1.6139 3.8455 0.41983 0.4107 4.0251 3.1117 8.0118 6.0022 3.9867 2.8906 9.625 6.9839 12.53 9.0966 6.6484 4.8358 7.9277 5.5323 12.219 6.6511 3.1287 0.81567 6.2152 1.046 9.5565 0.71311 4.0008-0.39861 7.4254-1.4975 11.029-3.5393 1.8247-1.0338 1.9404-1.1377 1.6143-1.4452-0.1932-0.18225-2.5412-1.9144-5.2179-3.8495-4.3431-3.1398-14.896-10.793-26.545-19.251-4.9882-3.6217-5.7505-4.0962-7.587-4.7208-1.7178-0.58425-3.506-0.88886-5.2806-0.92144z"
       fill="#9e8cfc"
       stop-color="#000000"
       stroke-linecap="square"
       stroke-width="4.1211"
       style="paint-order:stroke fill markers;fill-opacity:1.0;fill:url(#linearGradient13146)"
       id="path11137" /></g></svg>
